<mxfile host="app.diagrams.net" modified="2023-08-17T04:57:38.700Z" agent="Mozilla/5.0 (X11; Linux x86_64; rv:109.0) Gecko/20100101 Firefox/116.0" etag="bfupVJaQcoSlda_TQYse" version="21.6.8" type="github">
  <diagram name="Page-1" id="SYtZDHmTHBxyM6eHxWQx">
    <mxGraphModel dx="535" dy="1942" grid="1" gridSize="10" guides="1" tooltips="1" connect="1" arrows="1" fold="1" page="1" pageScale="1" pageWidth="850" pageHeight="1100" math="0" shadow="0">
      <root>
        <mxCell id="0" />
        <mxCell id="1" parent="0" />
        <mxCell id="j1aS_MyM9pX-cngmJyw--5" value="" style="rounded=0;whiteSpace=wrap;html=1;fillColor=#f8cecc;strokeColor=#b85450;" vertex="1" parent="1">
          <mxGeometry x="560" y="215" width="40" height="210" as="geometry" />
        </mxCell>
        <mxCell id="j1aS_MyM9pX-cngmJyw--1" value="" style="rounded=0;whiteSpace=wrap;html=1;" vertex="1" parent="1">
          <mxGeometry x="360" y="200" width="200" height="240" as="geometry" />
        </mxCell>
        <mxCell id="j1aS_MyM9pX-cngmJyw--2" value="Business Layer" style="rounded=1;whiteSpace=wrap;html=1;fillColor=#e1d5e7;strokeColor=#9673a6;" vertex="1" parent="1">
          <mxGeometry x="370" y="245" width="180" height="30" as="geometry" />
        </mxCell>
        <mxCell id="j1aS_MyM9pX-cngmJyw--11" style="edgeStyle=orthogonalEdgeStyle;rounded=0;orthogonalLoop=1;jettySize=auto;html=1;exitX=1;exitY=0.5;exitDx=0;exitDy=0;" edge="1" parent="1" source="j1aS_MyM9pX-cngmJyw--6" target="j1aS_MyM9pX-cngmJyw--44">
          <mxGeometry relative="1" as="geometry">
            <mxPoint x="750" y="340" as="targetPoint" />
          </mxGeometry>
        </mxCell>
        <mxCell id="j1aS_MyM9pX-cngmJyw--3" value="REST API" style="rounded=1;whiteSpace=wrap;html=1;fillColor=#d5e8d4;strokeColor=#82b366;" vertex="1" parent="1">
          <mxGeometry x="370" y="285" width="180" height="30" as="geometry" />
        </mxCell>
        <mxCell id="j1aS_MyM9pX-cngmJyw--4" value="" style="rounded=0;whiteSpace=wrap;html=1;fillColor=#dae8fc;strokeColor=#6c8ebf;" vertex="1" parent="1">
          <mxGeometry x="320" y="215" width="40" height="210" as="geometry" />
        </mxCell>
        <mxCell id="j1aS_MyM9pX-cngmJyw--6" value="Messaging" style="rounded=1;whiteSpace=wrap;html=1;fillColor=#a0522d;fontColor=#ffffff;strokeColor=#6D1F00;" vertex="1" parent="1">
          <mxGeometry x="370" y="325" width="180" height="30" as="geometry" />
        </mxCell>
        <mxCell id="j1aS_MyM9pX-cngmJyw--15" style="edgeStyle=orthogonalEdgeStyle;rounded=0;orthogonalLoop=1;jettySize=auto;html=1;" edge="1" parent="1" source="j1aS_MyM9pX-cngmJyw--7" target="j1aS_MyM9pX-cngmJyw--16">
          <mxGeometry relative="1" as="geometry" />
        </mxCell>
        <mxCell id="j1aS_MyM9pX-cngmJyw--7" value="Data Access" style="rounded=1;whiteSpace=wrap;html=1;fillColor=#1ba1e2;strokeColor=#006EAF;fontColor=#ffffff;" vertex="1" parent="1">
          <mxGeometry x="370" y="365" width="180" height="30" as="geometry" />
        </mxCell>
        <mxCell id="j1aS_MyM9pX-cngmJyw--9" value="AUTH" style="ellipse;whiteSpace=wrap;html=1;fontStyle=1" vertex="1" parent="1">
          <mxGeometry x="400" y="180" width="120" height="40" as="geometry" />
        </mxCell>
        <mxCell id="j1aS_MyM9pX-cngmJyw--12" value="&lt;div&gt;&lt;br&gt;&lt;/div&gt;&lt;div&gt;&lt;br&gt;&lt;/div&gt;&lt;div&gt;&lt;br&gt;&lt;/div&gt;&lt;div&gt;&lt;br&gt;&lt;/div&gt;&lt;div&gt;&lt;br&gt;&lt;/div&gt;&lt;div&gt;&lt;br&gt;&lt;/div&gt;&lt;div&gt;&lt;br&gt;&lt;/div&gt;&lt;div&gt;&lt;br&gt;&lt;/div&gt;&lt;div&gt;&lt;br&gt;&lt;/div&gt;&lt;div&gt;&lt;br&gt;&lt;/div&gt;&lt;div&gt;&lt;br&gt;&lt;/div&gt;&lt;div&gt;&lt;br&gt;&lt;/div&gt;&lt;div&gt;&lt;br&gt;&lt;/div&gt;&lt;div&gt;&lt;br&gt;&lt;/div&gt;&lt;div&gt;&lt;br&gt;&lt;/div&gt;&lt;div&gt;&lt;br&gt;&lt;/div&gt;&lt;div&gt;&lt;br&gt;&lt;/div&gt;&lt;div&gt;&lt;br&gt;&lt;/div&gt;&lt;div&gt;&lt;br&gt;&lt;/div&gt;&lt;div&gt;&lt;br&gt;&lt;/div&gt;&lt;div&gt;&lt;br&gt;&lt;/div&gt;&lt;div&gt;&lt;br&gt;&lt;/div&gt;&lt;div&gt;&lt;br&gt;&lt;/div&gt;&lt;div&gt;&lt;br&gt;&lt;/div&gt;&lt;div&gt;&lt;br&gt;&lt;/div&gt;&lt;div&gt;&lt;br&gt;&lt;/div&gt;&lt;div&gt;&lt;br&gt;&lt;/div&gt;&lt;div&gt;&lt;br&gt;&lt;/div&gt;&lt;div&gt;&lt;br&gt;&lt;/div&gt;&lt;div&gt;&lt;br&gt;&lt;/div&gt;&lt;div&gt;&lt;br&gt;&lt;/div&gt;&lt;div&gt;&lt;br&gt;&lt;/div&gt;&lt;div&gt;&lt;br&gt;&lt;/div&gt;&lt;div&gt;&lt;br&gt;&lt;/div&gt;&lt;div&gt;&lt;br&gt;&lt;/div&gt;&lt;div&gt;&lt;br&gt;&lt;/div&gt;&lt;div&gt;&lt;br&gt;&lt;/div&gt;&lt;div&gt;&lt;br&gt;&lt;/div&gt;&lt;div&gt;&lt;br&gt;&lt;/div&gt;&lt;div&gt;&lt;br&gt;&lt;/div&gt;&lt;div&gt;&lt;br&gt;&lt;/div&gt;&lt;div&gt;&lt;br&gt;&lt;/div&gt;&lt;div&gt;&lt;br&gt;&lt;/div&gt;&lt;div&gt;&lt;br&gt;&lt;/div&gt;&lt;div&gt;&lt;br&gt;&lt;/div&gt;&lt;div&gt;&lt;br&gt;&lt;/div&gt;&lt;div&gt;&lt;br&gt;&lt;/div&gt;&lt;div&gt;&lt;br&gt;&lt;/div&gt;&lt;div&gt;&lt;br&gt;&lt;/div&gt;&lt;div&gt;&lt;br&gt;&lt;/div&gt;&lt;div&gt;&lt;br&gt;&lt;/div&gt;&lt;div&gt;&lt;br&gt;&lt;/div&gt;&lt;div&gt;&lt;br&gt;&lt;/div&gt;&lt;div&gt;&lt;br&gt;&lt;/div&gt;&lt;div&gt;&lt;br&gt;&lt;/div&gt;&lt;div&gt;&lt;br&gt;&lt;/div&gt;&lt;div&gt;&lt;br&gt;&lt;/div&gt;&lt;div&gt;&lt;br&gt;&lt;/div&gt;&lt;div&gt;&lt;br&gt;&lt;/div&gt;&lt;div&gt;&lt;br&gt;&lt;/div&gt;&lt;div&gt;&lt;br&gt;&lt;/div&gt;&lt;div&gt;&lt;br&gt;&lt;/div&gt;&lt;div&gt;&lt;br&gt;&lt;/div&gt;&lt;div&gt;&lt;br&gt;&lt;/div&gt;&lt;div&gt;&lt;br&gt;&lt;/div&gt;&lt;div&gt;&lt;br&gt;&lt;/div&gt;&lt;div&gt;&lt;br&gt;&lt;/div&gt;&lt;div&gt;&lt;br&gt;&lt;/div&gt;&lt;div&gt;&lt;br&gt;&lt;/div&gt;" style="whiteSpace=wrap;html=1;" vertex="1" parent="1">
          <mxGeometry x="790" y="220" width="310" height="375" as="geometry" />
        </mxCell>
        <mxCell id="j1aS_MyM9pX-cngmJyw--17" style="edgeStyle=orthogonalEdgeStyle;rounded=0;orthogonalLoop=1;jettySize=auto;html=1;" edge="1" parent="1" source="j1aS_MyM9pX-cngmJyw--16" target="j1aS_MyM9pX-cngmJyw--19">
          <mxGeometry relative="1" as="geometry">
            <mxPoint x="460" y="640" as="targetPoint" />
          </mxGeometry>
        </mxCell>
        <mxCell id="j1aS_MyM9pX-cngmJyw--16" value="" style="html=1;dashed=0;whiteSpace=wrap;" vertex="1" parent="1">
          <mxGeometry x="372.5" y="500" width="175" height="160" as="geometry" />
        </mxCell>
        <mxCell id="j1aS_MyM9pX-cngmJyw--19" value="" style="sketch=0;outlineConnect=0;fontColor=#232F3E;gradientColor=none;fillColor=#2E27AD;strokeColor=none;dashed=0;verticalLabelPosition=bottom;verticalAlign=top;align=center;html=1;fontSize=12;fontStyle=0;aspect=fixed;pointerEvents=1;shape=mxgraph.aws4.rds_postgresql_instance;" vertex="1" parent="1">
          <mxGeometry x="421" y="740" width="78" height="78" as="geometry" />
        </mxCell>
        <mxCell id="j1aS_MyM9pX-cngmJyw--24" value="" style="shape=image;verticalLabelPosition=bottom;labelBackgroundColor=default;verticalAlign=top;aspect=fixed;imageAspect=0;image=https://bs-uploads.toptal.io/blackfish-uploads/skill_page/content/logo_file/logo/6212/GraphQL_Logo.svg-490ae3deb7c0f056c849d7463fb8ab39.png;" vertex="1" parent="1">
          <mxGeometry x="372.5" y="500" width="52" height="52" as="geometry" />
        </mxCell>
        <mxCell id="j1aS_MyM9pX-cngmJyw--31" value="" style="rounded=0;whiteSpace=wrap;html=1;fillColor=#f8cecc;strokeColor=#b85450;" vertex="1" parent="1">
          <mxGeometry x="1400" y="215" width="40" height="210" as="geometry" />
        </mxCell>
        <mxCell id="j1aS_MyM9pX-cngmJyw--32" value="" style="rounded=0;whiteSpace=wrap;html=1;" vertex="1" parent="1">
          <mxGeometry x="1200" y="200" width="200" height="240" as="geometry" />
        </mxCell>
        <mxCell id="j1aS_MyM9pX-cngmJyw--33" value="Business Layer" style="rounded=1;whiteSpace=wrap;html=1;fillColor=#e1d5e7;strokeColor=#9673a6;" vertex="1" parent="1">
          <mxGeometry x="1210" y="245" width="180" height="30" as="geometry" />
        </mxCell>
        <mxCell id="j1aS_MyM9pX-cngmJyw--34" value="REST API" style="rounded=1;whiteSpace=wrap;html=1;fillColor=#d5e8d4;strokeColor=#82b366;" vertex="1" parent="1">
          <mxGeometry x="1210" y="285" width="180" height="30" as="geometry" />
        </mxCell>
        <mxCell id="j1aS_MyM9pX-cngmJyw--35" value="" style="rounded=0;whiteSpace=wrap;html=1;fillColor=#dae8fc;strokeColor=#6c8ebf;" vertex="1" parent="1">
          <mxGeometry x="1160" y="215" width="40" height="210" as="geometry" />
        </mxCell>
        <mxCell id="j1aS_MyM9pX-cngmJyw--36" value="Messaging" style="rounded=1;whiteSpace=wrap;html=1;fillColor=#a0522d;fontColor=#ffffff;strokeColor=#6D1F00;" vertex="1" parent="1">
          <mxGeometry x="1210" y="325" width="180" height="30" as="geometry" />
        </mxCell>
        <mxCell id="j1aS_MyM9pX-cngmJyw--37" style="edgeStyle=orthogonalEdgeStyle;rounded=0;orthogonalLoop=1;jettySize=auto;html=1;" edge="1" parent="1" source="j1aS_MyM9pX-cngmJyw--38" target="j1aS_MyM9pX-cngmJyw--41">
          <mxGeometry relative="1" as="geometry" />
        </mxCell>
        <mxCell id="j1aS_MyM9pX-cngmJyw--38" value="Data Access" style="rounded=1;whiteSpace=wrap;html=1;fillColor=#1ba1e2;strokeColor=#006EAF;fontColor=#ffffff;" vertex="1" parent="1">
          <mxGeometry x="1210" y="365" width="180" height="30" as="geometry" />
        </mxCell>
        <mxCell id="j1aS_MyM9pX-cngmJyw--39" value="EXERCISE" style="ellipse;whiteSpace=wrap;html=1;fontStyle=1" vertex="1" parent="1">
          <mxGeometry x="1240" y="180" width="120" height="40" as="geometry" />
        </mxCell>
        <mxCell id="j1aS_MyM9pX-cngmJyw--40" style="edgeStyle=orthogonalEdgeStyle;rounded=0;orthogonalLoop=1;jettySize=auto;html=1;" edge="1" parent="1" source="j1aS_MyM9pX-cngmJyw--41" target="j1aS_MyM9pX-cngmJyw--42">
          <mxGeometry relative="1" as="geometry">
            <mxPoint x="1300" y="640" as="targetPoint" />
          </mxGeometry>
        </mxCell>
        <mxCell id="j1aS_MyM9pX-cngmJyw--41" value="" style="html=1;dashed=0;whiteSpace=wrap;" vertex="1" parent="1">
          <mxGeometry x="1212.5" y="500" width="175" height="160" as="geometry" />
        </mxCell>
        <mxCell id="j1aS_MyM9pX-cngmJyw--42" value="" style="sketch=0;outlineConnect=0;fontColor=#232F3E;gradientColor=none;fillColor=#2E27AD;strokeColor=none;dashed=0;verticalLabelPosition=bottom;verticalAlign=top;align=center;html=1;fontSize=12;fontStyle=0;aspect=fixed;pointerEvents=1;shape=mxgraph.aws4.rds_postgresql_instance;" vertex="1" parent="1">
          <mxGeometry x="1261" y="740" width="78" height="78" as="geometry" />
        </mxCell>
        <mxCell id="j1aS_MyM9pX-cngmJyw--43" value="" style="shape=image;verticalLabelPosition=bottom;labelBackgroundColor=default;verticalAlign=top;aspect=fixed;imageAspect=0;image=https://bs-uploads.toptal.io/blackfish-uploads/skill_page/content/logo_file/logo/6212/GraphQL_Logo.svg-490ae3deb7c0f056c849d7463fb8ab39.png;" vertex="1" parent="1">
          <mxGeometry x="1212.5" y="500" width="52" height="52" as="geometry" />
        </mxCell>
        <mxCell id="j1aS_MyM9pX-cngmJyw--44" value="" style="rounded=1;whiteSpace=wrap;html=1;" vertex="1" parent="1">
          <mxGeometry x="800" y="260" width="290" height="225" as="geometry" />
        </mxCell>
        <mxCell id="j1aS_MyM9pX-cngmJyw--30" value="User REGISTER, sender" style="rounded=0;whiteSpace=wrap;html=1;" vertex="1" parent="1">
          <mxGeometry x="820" y="300" width="230" height="33.75" as="geometry" />
        </mxCell>
        <mxCell id="j1aS_MyM9pX-cngmJyw--45" value="User DELETE" style="rounded=0;whiteSpace=wrap;html=1;" vertex="1" parent="1">
          <mxGeometry x="820" y="350" width="230" height="33.75" as="geometry" />
        </mxCell>
        <mxCell id="j1aS_MyM9pX-cngmJyw--59" value="" style="rounded=0;whiteSpace=wrap;html=1;fillColor=#f8cecc;strokeColor=#b85450;" vertex="1" parent="1">
          <mxGeometry x="980" y="735" width="40" height="210" as="geometry" />
        </mxCell>
        <mxCell id="j1aS_MyM9pX-cngmJyw--60" value="" style="rounded=0;whiteSpace=wrap;html=1;" vertex="1" parent="1">
          <mxGeometry x="780" y="720" width="200" height="240" as="geometry" />
        </mxCell>
        <mxCell id="j1aS_MyM9pX-cngmJyw--61" value="Business Layer" style="rounded=1;whiteSpace=wrap;html=1;fillColor=#e1d5e7;strokeColor=#9673a6;" vertex="1" parent="1">
          <mxGeometry x="790" y="765" width="180" height="30" as="geometry" />
        </mxCell>
        <mxCell id="j1aS_MyM9pX-cngmJyw--62" value="REST API" style="rounded=1;whiteSpace=wrap;html=1;fillColor=#d5e8d4;strokeColor=#82b366;" vertex="1" parent="1">
          <mxGeometry x="790" y="805" width="180" height="30" as="geometry" />
        </mxCell>
        <mxCell id="j1aS_MyM9pX-cngmJyw--63" value="" style="rounded=0;whiteSpace=wrap;html=1;fillColor=#dae8fc;strokeColor=#6c8ebf;" vertex="1" parent="1">
          <mxGeometry x="740" y="735" width="40" height="210" as="geometry" />
        </mxCell>
        <mxCell id="j1aS_MyM9pX-cngmJyw--64" value="Messaging" style="rounded=1;whiteSpace=wrap;html=1;fillColor=#a0522d;fontColor=#ffffff;strokeColor=#6D1F00;" vertex="1" parent="1">
          <mxGeometry x="790" y="845" width="180" height="30" as="geometry" />
        </mxCell>
        <mxCell id="j1aS_MyM9pX-cngmJyw--65" style="edgeStyle=orthogonalEdgeStyle;rounded=0;orthogonalLoop=1;jettySize=auto;html=1;" edge="1" parent="1" source="j1aS_MyM9pX-cngmJyw--66" target="j1aS_MyM9pX-cngmJyw--69">
          <mxGeometry relative="1" as="geometry" />
        </mxCell>
        <mxCell id="j1aS_MyM9pX-cngmJyw--66" value="Data Access" style="rounded=1;whiteSpace=wrap;html=1;fillColor=#1ba1e2;strokeColor=#006EAF;fontColor=#ffffff;" vertex="1" parent="1">
          <mxGeometry x="790" y="885" width="180" height="30" as="geometry" />
        </mxCell>
        <mxCell id="j1aS_MyM9pX-cngmJyw--67" value="EXERCISE" style="ellipse;whiteSpace=wrap;html=1;fontStyle=1" vertex="1" parent="1">
          <mxGeometry x="820" y="700" width="120" height="40" as="geometry" />
        </mxCell>
        <mxCell id="j1aS_MyM9pX-cngmJyw--68" style="edgeStyle=orthogonalEdgeStyle;rounded=0;orthogonalLoop=1;jettySize=auto;html=1;" edge="1" parent="1" source="j1aS_MyM9pX-cngmJyw--69" target="j1aS_MyM9pX-cngmJyw--70">
          <mxGeometry relative="1" as="geometry">
            <mxPoint x="880" y="1160" as="targetPoint" />
          </mxGeometry>
        </mxCell>
        <mxCell id="j1aS_MyM9pX-cngmJyw--69" value="" style="html=1;dashed=0;whiteSpace=wrap;" vertex="1" parent="1">
          <mxGeometry x="792.5" y="1020" width="175" height="160" as="geometry" />
        </mxCell>
        <mxCell id="j1aS_MyM9pX-cngmJyw--70" value="" style="sketch=0;outlineConnect=0;fontColor=#232F3E;gradientColor=none;fillColor=#2E27AD;strokeColor=none;dashed=0;verticalLabelPosition=bottom;verticalAlign=top;align=center;html=1;fontSize=12;fontStyle=0;aspect=fixed;pointerEvents=1;shape=mxgraph.aws4.rds_postgresql_instance;" vertex="1" parent="1">
          <mxGeometry x="841" y="1260" width="78" height="78" as="geometry" />
        </mxCell>
        <mxCell id="j1aS_MyM9pX-cngmJyw--71" value="" style="shape=image;verticalLabelPosition=bottom;labelBackgroundColor=default;verticalAlign=top;aspect=fixed;imageAspect=0;image=https://bs-uploads.toptal.io/blackfish-uploads/skill_page/content/logo_file/logo/6212/GraphQL_Logo.svg-490ae3deb7c0f056c849d7463fb8ab39.png;" vertex="1" parent="1">
          <mxGeometry x="792.5" y="1020" width="52" height="52" as="geometry" />
        </mxCell>
        <mxCell id="j1aS_MyM9pX-cngmJyw--72" value="" style="rounded=0;whiteSpace=wrap;html=1;fillColor=#f8cecc;strokeColor=#b85450;" vertex="1" parent="1">
          <mxGeometry x="1470" y="980" width="40" height="210" as="geometry" />
        </mxCell>
        <mxCell id="j1aS_MyM9pX-cngmJyw--73" value="" style="rounded=0;whiteSpace=wrap;html=1;" vertex="1" parent="1">
          <mxGeometry x="1270" y="965" width="200" height="240" as="geometry" />
        </mxCell>
        <mxCell id="j1aS_MyM9pX-cngmJyw--74" value="Business Layer" style="rounded=1;whiteSpace=wrap;html=1;fillColor=#e1d5e7;strokeColor=#9673a6;" vertex="1" parent="1">
          <mxGeometry x="1280" y="1010" width="180" height="30" as="geometry" />
        </mxCell>
        <mxCell id="j1aS_MyM9pX-cngmJyw--75" value="REST API" style="rounded=1;whiteSpace=wrap;html=1;fillColor=#d5e8d4;strokeColor=#82b366;" vertex="1" parent="1">
          <mxGeometry x="1280" y="1050" width="180" height="30" as="geometry" />
        </mxCell>
        <mxCell id="j1aS_MyM9pX-cngmJyw--76" value="" style="rounded=0;whiteSpace=wrap;html=1;fillColor=#dae8fc;strokeColor=#6c8ebf;" vertex="1" parent="1">
          <mxGeometry x="1230" y="980" width="40" height="210" as="geometry" />
        </mxCell>
        <mxCell id="j1aS_MyM9pX-cngmJyw--77" value="Messaging" style="rounded=1;whiteSpace=wrap;html=1;fillColor=#a0522d;fontColor=#ffffff;strokeColor=#6D1F00;" vertex="1" parent="1">
          <mxGeometry x="1280" y="1090" width="180" height="30" as="geometry" />
        </mxCell>
        <mxCell id="j1aS_MyM9pX-cngmJyw--78" style="edgeStyle=orthogonalEdgeStyle;rounded=0;orthogonalLoop=1;jettySize=auto;html=1;" edge="1" parent="1" source="j1aS_MyM9pX-cngmJyw--79" target="j1aS_MyM9pX-cngmJyw--82">
          <mxGeometry relative="1" as="geometry" />
        </mxCell>
        <mxCell id="j1aS_MyM9pX-cngmJyw--79" value="Data Access" style="rounded=1;whiteSpace=wrap;html=1;fillColor=#1ba1e2;strokeColor=#006EAF;fontColor=#ffffff;" vertex="1" parent="1">
          <mxGeometry x="1280" y="1130" width="180" height="30" as="geometry" />
        </mxCell>
        <mxCell id="j1aS_MyM9pX-cngmJyw--80" value="EXERCISE" style="ellipse;whiteSpace=wrap;html=1;fontStyle=1" vertex="1" parent="1">
          <mxGeometry x="1310" y="945" width="120" height="40" as="geometry" />
        </mxCell>
        <mxCell id="j1aS_MyM9pX-cngmJyw--81" style="edgeStyle=orthogonalEdgeStyle;rounded=0;orthogonalLoop=1;jettySize=auto;html=1;" edge="1" parent="1" source="j1aS_MyM9pX-cngmJyw--82" target="j1aS_MyM9pX-cngmJyw--83">
          <mxGeometry relative="1" as="geometry">
            <mxPoint x="1370" y="1405" as="targetPoint" />
          </mxGeometry>
        </mxCell>
        <mxCell id="j1aS_MyM9pX-cngmJyw--82" value="" style="html=1;dashed=0;whiteSpace=wrap;" vertex="1" parent="1">
          <mxGeometry x="1282.5" y="1265" width="175" height="160" as="geometry" />
        </mxCell>
        <mxCell id="j1aS_MyM9pX-cngmJyw--83" value="" style="sketch=0;outlineConnect=0;fontColor=#232F3E;gradientColor=none;fillColor=#2E27AD;strokeColor=none;dashed=0;verticalLabelPosition=bottom;verticalAlign=top;align=center;html=1;fontSize=12;fontStyle=0;aspect=fixed;pointerEvents=1;shape=mxgraph.aws4.rds_postgresql_instance;" vertex="1" parent="1">
          <mxGeometry x="1331" y="1505" width="78" height="78" as="geometry" />
        </mxCell>
        <mxCell id="j1aS_MyM9pX-cngmJyw--84" value="" style="shape=image;verticalLabelPosition=bottom;labelBackgroundColor=default;verticalAlign=top;aspect=fixed;imageAspect=0;image=https://bs-uploads.toptal.io/blackfish-uploads/skill_page/content/logo_file/logo/6212/GraphQL_Logo.svg-490ae3deb7c0f056c849d7463fb8ab39.png;" vertex="1" parent="1">
          <mxGeometry x="1282.5" y="1265" width="52" height="52" as="geometry" />
        </mxCell>
        <mxCell id="j1aS_MyM9pX-cngmJyw--85" value="User REGISTER, sender" style="rounded=0;whiteSpace=wrap;html=1;" vertex="1" parent="1">
          <mxGeometry x="820" y="406.25" width="230" height="33.75" as="geometry" />
        </mxCell>
        <mxCell id="j1aS_MyM9pX-cngmJyw--86" value="User REGISTER, sender" style="rounded=0;whiteSpace=wrap;html=1;" vertex="1" parent="1">
          <mxGeometry x="820" y="451.25" width="230" height="33.75" as="geometry" />
        </mxCell>
      </root>
    </mxGraphModel>
  </diagram>
</mxfile>
